<svg width="23" height="35" viewBox="0 0 23 35" fill="none" xmlns="http://www.w3.org/2000/svg">
  <path d="M15.4688 15.4692C15.4688 15.4692 15.7478 15.1902 16.3058 14.6321C16.8638 14.0741 17.1429 13.0064 17.1429 11.429C17.1429 9.85161 16.5848 8.50488 15.4688 7.38881C14.3527 6.27274 13.006 5.71471 11.4286 5.71471C9.85119 5.71471 8.50446 6.27274 7.38839 7.38881C6.27232 8.50488 5.71429 9.85161 5.71429 11.429C5.71429 13.0064 6.27232 14.3531 7.38839 15.4692C8.50446 16.5852 9.85119 17.1433 11.4286 17.1433C13.006 17.1433 14.3527 16.5852 15.4688 15.4692ZM22.8571 11.429C22.8571 13.051 22.6116 14.3829 22.1205 15.4245L13.9955 32.7013C13.7574 33.1924 13.404 33.5793 12.9353 33.862C12.4665 34.1448 11.9643 34.2861 11.4286 34.2861C10.8929 34.2861 10.3906 34.1448 9.92188 33.862C9.45312 33.5793 9.10714 33.1924 8.88393 32.7013L0.736607 15.4245C0.245536 14.3829 0 13.051 0 11.429C0 8.27423 1.11607 5.58078 3.34821 3.34863C5.58036 1.11649 8.27381 0.000419617 11.4286 0.000419617C14.5833 0.000419617 17.2768 1.11649 19.5089 3.34863C21.7411 5.58078 22.8571 8.27423 22.8571 11.429Z" fill="#E62A2A"/>
</svg>
