
<svg width="240" height="28" viewBox="0 0 240 28" fill="none" xmlns="http://www.w3.org/2000/svg">
<path d="M19.2773 14.4043C24.2928 14.4045 28.3584 18.4708 28.3584 23.4863C28.3584 23.7386 28.3444 23.9882 28.3242 24.2354C27.9274 20.4423 25.2447 17.11 21.3389 16.0771C17.07 14.9484 12.711 16.9275 10.6602 20.6182C11.861 17.0083 15.2641 14.4043 19.2773 14.4043Z" fill="white"/>
<path d="M86.6285 15.044C92.1173 14.0332 97.387 17.6632 98.398 23.152C98.4482 23.4245 98.483 23.6973 98.5106 23.9683C97.3091 19.9022 93.7033 16.8016 89.2245 16.4586C84.3207 16.0832 79.9463 19.1334 78.4497 23.5925C79.032 19.395 82.2327 15.8537 86.6285 15.044Z" fill="white"/>
<path d="M3.04855 8.04492C3.04855 8.04492 6.8415 9.37791 9.36871 9.77013C12.2685 10.2202 13.8074 10.3403 16.8042 10.6702C20.3976 11.0658 22.6714 11.0369 26.2472 11.5703C28.9682 11.9762 30.4961 12.2381 33.1622 12.9205C34.7744 13.3331 35.6848 13.5579 37.2518 14.1206C38.9795 14.7411 41.5643 15.9959 41.5643 15.9959C41.5643 15.9959 36.9228 14.9234 33.9058 14.4957C31.5939 14.1679 30.2846 14.0829 27.9574 13.8956C25.4639 13.695 24.063 13.6024 21.5629 13.5206C18.3995 13.417 13.4582 13.5206 13.4582 13.5206C13.4582 13.5206 9.2726 13.6574 6.76629 14.4957C5.02792 15.0771 4.03362 15.469 2.52806 16.5209C1.4457 17.2772 0 18.7712 0 18.7712C0 18.7712 0.166744 17.9277 0.371774 17.421C0.612725 16.8256 1.41274 15.6208 1.41274 15.6208L4.16387 12.3954C4.16387 12.3954 3.26872 11.0218 3.04855 10.1452C2.8341 9.29142 3.04855 8.04492 3.04855 8.04492Z" fill="white"/>
<path d="M35.5312 20.7812C35.5312 20.7812 42.4987 23.2159 48.8732 23.6586C55.2477 24.1013 65.6989 23.6586 65.6989 23.6586C65.6989 23.6586 56.7301 25.3555 48.3544 24.6177C39.9786 23.88 35.5312 20.7812 35.5312 20.7812Z" fill="white"/>
<path d="M21.8919 5.22874C25.6766 3.68498 27.9042 3.08025 31.8639 2.12603C33.9129 1.63223 35.0737 1.40502 37.1475 1.04008C39.4616 0.632853 40.7612 0.376757 43.1009 0.186835C44.9272 0.0385914 45.9576 0.0624613 47.7892 0.0316996C49.678 -2.25969e-05 50.738 -0.0199516 52.6263 0.0316996C53.9349 0.0674935 54.6694 0.0886579 55.9751 0.186835C57.1692 0.276622 57.837 0.353141 59.0262 0.497106C61.48 0.794161 62.8671 0.941028 65.2773 1.50549C66.8938 1.88406 67.7853 2.16584 69.3702 2.669C70.7769 3.11557 71.5625 3.38032 72.9423 3.91009C74.3248 4.44089 75.1058 4.73225 76.4399 5.38387C77.8764 6.08555 80.0119 7.40064 80.0119 7.40064C80.0119 7.40064 82.3791 7.21085 84.1793 7.29137C85.6646 7.35781 86.1141 7.38688 87.4537 7.60164C88.4508 7.7615 89.3141 7.89775 90.4304 8.25388C91.5466 8.61002 92.514 9.18469 92.514 9.18469C92.514 9.18469 89.4388 8.61261 87.4537 8.53245C85.0998 8.4374 83.7573 8.52336 81.4258 8.87442C79.6257 9.14549 78.6418 9.46412 76.8864 9.96037C74.7044 10.5772 73.5763 11.2652 71.3795 11.822C69.8564 12.208 68.9948 12.4326 67.4354 12.5977C65.5849 12.7936 64.5249 12.7743 62.6727 12.5977C60.9978 12.438 60.0597 12.2588 58.4309 11.822C56.8555 11.3995 55.9676 11.1275 54.4868 10.4258C52.9214 9.68395 52.0699 9.17031 50.6915 8.09875C49.7338 7.35424 48.3845 6.00442 48.3845 6.00442C48.3845 6.00442 52.1642 8.17926 54.7844 9.02956C56.8252 9.69181 58.0167 9.96108 60.1425 10.1931C62.9764 10.5023 64.6128 10.3665 67.4354 9.96037C70.5287 9.5153 75.1748 7.86604 75.1748 7.86604C75.1748 7.86604 70.0648 5.81873 66.6912 4.8409C63.9063 4.03368 62.3297 3.59245 59.4727 3.13441C56.8774 2.71832 55.4003 2.57918 52.7752 2.51387C50.6825 2.4618 49.5066 2.53823 47.4171 2.669C45.7283 2.7747 44.7759 2.80871 43.1009 3.05684C39.4367 3.59964 37.4264 4.30008 33.9476 5.61658C31.6591 6.4826 28.2174 8.17631 28.2174 8.17631L31.5662 11.7127C31.5662 11.7127 27.7709 10.5439 22.7105 10.1614C17.6502 9.77883 14.0781 9.30813 14.0781 9.30813C14.0781 9.30813 18.8411 6.47319 21.8919 5.22874Z" fill="white"/>
<path d="M58.9941 12.9868C58.9941 12.9868 63.9951 13.7165 66.5411 13.5832C69.25 13.4414 70.719 12.8618 73.3407 12.1668C75.5884 11.571 76.7662 10.9518 79.0196 10.3776C80.1788 10.0823 80.8275 9.89777 82.0085 9.70671C84.0281 9.37997 85.1937 9.35532 87.239 9.40851C88.6441 9.44505 89.4348 9.50474 90.8257 9.70671C92.1226 9.89502 92.855 10.0127 94.1134 10.3776C95.3728 10.7428 96.0629 11.0179 97.2518 11.5704C98.4953 12.1483 99.1853 12.5091 100.315 13.285C101.34 13.9887 101.873 14.4495 102.781 15.2978C103.686 16.1424 104.171 16.6467 104.948 17.6088C105.685 18.5205 106.592 20.113 106.592 20.113C106.592 20.113 104.072 17.2589 102.109 15.8197C101.346 15.2603 100.897 14.9744 100.091 14.4778C99.2906 13.9843 98.8464 13.6933 97.999 13.285C97.1499 12.876 96.6446 12.7085 95.7573 12.3904C94.7498 12.0293 94.1873 11.8012 93.1421 11.5704C91.8804 11.2918 91.2938 11.1677 90.0037 11.0926C88.6346 11.013 87.7121 11.0226 86.3424 11.0926C84.936 11.1646 84.1296 11.2617 82.7557 11.5704C81.5854 11.8334 80.7637 12.1868 79.6174 12.5395C77.0001 13.3449 75.6939 13.5713 73.0419 14.2542C70.7255 14.8505 69.6794 14.9734 66.8399 14.8505C65.1619 14.7779 64.7477 14.8505 62.5808 14.2542C61.5115 13.9599 58.9941 12.9868 58.9941 12.9868Z" fill="white"/>
<path d="M128.738 21.4518L127.684 17.9609H122.372L121.317 21.4518H117.988L123.13 6.70312H126.905L132.067 21.4518H128.737H128.738ZM126.946 15.3375L125.888 11.9254C125.824 11.6979 125.736 11.4057 125.627 11.0474C125.515 10.6891 125.406 10.3249 125.297 9.95243C125.189 9.58074 125.1 9.25663 125.032 8.98158C124.968 9.25737 124.876 9.59784 124.76 10.0008C124.644 10.4066 124.532 10.7895 124.426 11.1508C124.318 11.512 124.243 11.7707 124.195 11.9254L123.151 15.3375H126.946H126.946Z" fill="white"/>
<path d="M146.143 21.4518H142.58L137.214 13.9778V21.4518H134.076V6.70312H137.214V13.847L142.518 6.70312H145.86L140.465 13.7846L146.143 21.4518Z" fill="white"/>
<path d="M148.156 21.4518V6.70312H160.223V21.4518H156.998V9.30569H151.388V21.4518H148.156Z" fill="white"/>
<path d="M178.323 19.2247V26.1445H175.115V21.7584H163.574V6.70312H166.899V19.1017H172.669V6.70312H175.987V19.2247H178.323Z" fill="white"/>
<path d="M189.051 21.4518H180.336V6.70312H189.051V9.26407H183.544V12.5074H188.666V15.0691H183.544V18.87H189.051V21.4518Z" fill="white"/>
<path d="M204.469 21.4518H201.358V15.0899H195.524V21.4518H192.402V6.70312H195.524V12.4874H201.358V6.70312H204.469V21.4518Z" fill="white"/>
<path d="M214.208 21.4518H210.821V9.30569H206.48V6.70312H218.548V9.30569H214.208V21.4518Z" fill="white"/>
<path d="M224.898 6.70312C226.652 6.70312 227.93 7.11271 228.736 7.92889C229.541 8.74508 229.944 9.8705 229.944 11.3029C229.944 11.9504 229.855 12.5666 229.674 13.1553C229.493 13.7441 229.202 14.2636 228.796 14.7215C228.39 15.1794 227.851 15.5407 227.175 15.8061C226.499 16.0707 225.665 16.2053 224.675 16.2053H223.438V21.4518H220.559V6.70387H224.898L224.898 6.70312ZM224.749 9.26394H223.439V13.643H224.387C224.926 13.643 225.396 13.5634 225.793 13.4088C226.189 13.2542 226.494 13.0133 226.712 12.6826C226.928 12.3555 227.036 11.9318 227.036 11.4122C227.036 10.6859 226.849 10.1485 226.478 9.79394C226.106 9.43936 225.529 9.26319 224.749 9.26319V9.26394Z" fill="white"/>
<path d="M236.865 13.2111H240V14.9835H236.865V18.0994H235.09V14.9835H231.955V13.2111H235.09V10.0547H236.865V13.2111Z" fill="white"/>
</svg>
